<svg xmlns="http://www.w3.org/2000/svg" width="60.059" height="75" viewBox="0 0 60.059 75">
  <g id="security" transform="translate(-51)">
    <path id="Path_1464" data-name="Path 1464" d="M110.415,24.228l-5.859-5.859A2.2,2.2,0,0,0,103,17.725H96.41V6.592A6.6,6.6,0,0,0,89.818,0H57.592A6.6,6.6,0,0,0,51,6.592V68.408A6.6,6.6,0,0,0,57.592,75H89.818a6.6,6.6,0,0,0,6.592-6.592V56.514a25.488,25.488,0,0,0,14.648-23.072V25.781A2.2,2.2,0,0,0,110.415,24.228ZM79.446,4.395,77.981,8.789H69.429L67.965,4.395Zm12.57,64.014a2.2,2.2,0,0,1-2.2,2.2H57.592a2.2,2.2,0,0,1-2.2-2.2V6.592a2.2,2.2,0,0,1,2.2-2.2h5.74l2.429,7.287a2.2,2.2,0,0,0,2.085,1.5H79.564a2.2,2.2,0,0,0,2.084-1.5l2.429-7.287h5.74a2.2,2.2,0,0,1,2.2,2.2V17.725H85.424a2.2,2.2,0,0,0-1.554.644l-5.859,5.859a2.2,2.2,0,0,0-.644,1.554v7.661A25.488,25.488,0,0,0,92.016,56.514Zm14.648-34.966a21,21,0,0,1-12.451,19.25,21,21,0,0,1-12.451-19.25v-6.75l4.572-4.572h15.758l4.572,4.572Z" fill="#472b73"/>
    <path id="Path_1465" data-name="Path 1465" d="M301.647,207.5l-6.733,6.733-2.59-2.589a2.2,2.2,0,1,0-3.107,3.107l4.143,4.143a2.2,2.2,0,0,0,3.107,0l8.286-8.286a2.2,2.2,0,0,0-3.107-3.107Z" transform="translate(-202.773 -176.556)" fill="#a6a6a5"/>
    <path id="Path_1466" data-name="Path 1466" d="M171.986,422H163.2a2.2,2.2,0,0,0,0,4.395h8.789a2.2,2.2,0,0,0,0-4.395Z" transform="translate(-93.887 -360.184)" fill="#472b73"/>
  </g>
</svg>
