<svg id="voting" xmlns="http://www.w3.org/2000/svg" width="75" height="75" viewBox="0 0 75 75">
  <path id="Path_1457" data-name="Path 1457" d="M68.408,0H6.592A6.586,6.586,0,0,0,0,6.565V47.417a6.586,6.586,0,0,0,6.592,6.565H68.408A6.586,6.586,0,0,0,75,47.417V6.565A6.586,6.586,0,0,0,68.408,0Zm2.2,47.417a2.2,2.2,0,0,1-2.2,2.188H6.592a2.2,2.2,0,0,1-2.2-2.188V6.565a2.2,2.2,0,0,1,2.2-2.188H68.408a2.2,2.2,0,0,1,2.2,2.188Z" transform="translate(0)" fill="#472b73"/>
  <path id="Path_1458" data-name="Path 1458" d="M78.738,73.457a8.141,8.141,0,1,0-12.314,0A12.587,12.587,0,0,0,60,84.422V85.9a2.22,2.22,0,0,0,2.22,2.22H82.942a2.22,2.22,0,0,0,2.22-2.22v-1.48A12.587,12.587,0,0,0,78.738,73.457Zm-9.857-5.316a3.7,3.7,0,1,1,3.7,3.7A3.7,3.7,0,0,1,68.881,68.141ZM64.474,83.682a8.141,8.141,0,0,1,16.215,0Z" transform="translate(-51.119 -51.119)" fill="#472b73"/>
  <path id="Path_1459" data-name="Path 1459" d="M69.873,402H15.381a2.177,2.177,0,0,0-.892.191L1.3,408.112a2.23,2.23,0,0,0,0,4.058l13.184,5.92a2.177,2.177,0,0,0,.892.191H69.873A5.16,5.16,0,0,0,75,413.1v-5.92A5.16,5.16,0,0,0,69.873,402Zm-52.295,4.44H60.352v7.4H17.578Zm-4.395,1.2v5.008l-5.576-2.5ZM70.605,413.1a.737.737,0,0,1-.732.74H64.746v-7.4h5.127a.737.737,0,0,1,.732.74Z" transform="translate(0 -343.281)" fill="#a6a6a5"/>
  <path id="Path_1460" data-name="Path 1460" d="M82.942,280H62.22a2.22,2.22,0,0,0,0,4.44H82.942a2.22,2.22,0,0,0,0-4.44Z" transform="translate(-51.119 -239.011)" fill="#472b73"/>
  <path id="Path_1461" data-name="Path 1461" d="M287.9,60H264.22a2.22,2.22,0,0,0,0,4.44H287.9a2.22,2.22,0,1,0,0-4.44Z" transform="translate(-224.003 -51.119)" fill="#472b73"/>
  <path id="Path_1462" data-name="Path 1462" d="M287.9,120H264.22a2.22,2.22,0,0,0-2.22,2.22V145.9a2.22,2.22,0,0,0,2.22,2.22H287.9a2.22,2.22,0,0,0,2.22-2.22V122.22A2.22,2.22,0,0,0,287.9,120Zm-2.22,23.682H266.44V124.44h19.241Z" transform="translate(-224.003 -102.53)" fill="#472b73"/>
  <path id="Path_1463" data-name="Path 1463" d="M313.971,188.856a2.22,2.22,0,0,0,3.14,0l6.28-6.28a2.22,2.22,0,1,0-3.14-3.14l-4.709,4.71-1.57-1.57a2.22,2.22,0,1,0-3.14,3.14Z" transform="translate(-264.851 -152.642)" fill="#472b73"/>
</svg>
