<svg xmlns="http://www.w3.org/2000/svg" width="76.195" height="75.001" viewBox="0 0 76.195 75.001">
  <g id="conversation" transform="translate(0 -4.011)">
    <g id="Group_5297" data-name="Group 5297" transform="translate(0 4.011)">
      <g id="Group_5296" data-name="Group 5296" transform="translate(0 0)">
        <path id="Path_1469" data-name="Path 1469" d="M75.92,63.215,71.495,50.336A32.219,32.219,0,0,0,43.1,4.015a32.183,32.183,0,0,0-32.7,31.76A23.451,23.451,0,0,0,3.279,64.59L.231,73.461a4.192,4.192,0,0,0,3.947,5.551,4.219,4.219,0,0,0,1.373-.231l8.871-3.048A23.551,23.551,0,0,0,24.448,78h.037A23.417,23.417,0,0,0,43.42,68.368a32.285,32.285,0,0,0,13.3-3.256L69.6,69.538a5.014,5.014,0,0,0,1.631.274,4.981,4.981,0,0,0,4.691-6.6ZM24.485,73.461h-.03a18.967,18.967,0,0,1-8.809-2.187,2.269,2.269,0,0,0-1.8-.14l-9.1,3.126,3.126-9.1a2.268,2.268,0,0,0-.14-1.8A18.91,18.91,0,0,1,10.82,41.443,32.307,32.307,0,0,0,37.751,68.019,18.861,18.861,0,0,1,24.485,73.461Zm47.041-8.318a.411.411,0,0,1-.454.1L57.284,60.51a2.267,2.267,0,0,0-1.8.14,27.7,27.7,0,0,1-12.865,3.194h-.043a27.759,27.759,0,0,1-27.646-27.2A27.649,27.649,0,0,1,43.028,8.55,27.656,27.656,0,0,1,67.034,49.1a2.268,2.268,0,0,0-.14,1.8l4.738,13.788A.412.412,0,0,1,71.526,65.143Z" transform="translate(0 -4.011)" fill="#472b73"/>
      </g>
    </g>
    <g id="Group_5299" data-name="Group 5299" transform="translate(26.801 24.176)">
      <g id="Group_5298" data-name="Group 5298">
        <path id="Path_1470" data-name="Path 1470" d="M209.381,139.512H182.362a2.268,2.268,0,1,0,0,4.535h27.019a2.268,2.268,0,0,0,0-4.535Z" transform="translate(-180.094 -139.512)" fill="#a6a6a5"/>
      </g>
    </g>
    <g id="Group_5301" data-name="Group 5301" transform="translate(26.801 33.503)">
      <g id="Group_5300" data-name="Group 5300" transform="translate(0 0)">
        <path id="Path_1471" data-name="Path 1471" d="M209.381,202.183H182.362a2.268,2.268,0,0,0,0,4.535h27.019a2.268,2.268,0,0,0,0-4.535Z" transform="translate(-180.094 -202.183)" fill="#a6a6a5"/>
      </g>
    </g>
    <g id="Group_5303" data-name="Group 5303" transform="translate(26.801 42.829)">
      <g id="Group_5302" data-name="Group 5302">
        <path id="Path_1472" data-name="Path 1472" d="M198.98,264.852H182.361a2.268,2.268,0,1,0,0,4.535h16.619a2.268,2.268,0,0,0,0-4.535Z" transform="translate(-180.093 -264.852)" fill="#a6a6a5"/>
      </g>
    </g>
  </g>
</svg>
