<svg xmlns="http://www.w3.org/2000/svg" width="74.977" height="75" viewBox="0 0 74.977 75">
  <g id="check" transform="translate(-0.078)">
    <path id="Path_1467" data-name="Path 1467" d="M64.075,10.984A37.494,37.494,0,0,0,11.058,64.016,37.494,37.494,0,0,0,64.075,10.984ZM60.967,60.909a33.1,33.1,0,0,1-46.8-46.818,33.1,33.1,0,0,1,46.8,46.818Z" fill="#472b73"/>
    <path id="Path_1468" data-name="Path 1468" d="M136.351,131.686a2.2,2.2,0,0,0-3.108,0L115.5,149.432l-8.308-8.308a2.2,2.2,0,0,0-3.063-.043l-6.569,6.211a2.2,2.2,0,0,0-.044,3.15L114.075,167a2.2,2.2,0,0,0,3.107,0l25.689-25.689a2.2,2.2,0,0,0,0-3.107Zm-20.723,30.655L102.22,148.932l3.374-3.19,8.351,8.351a2.2,2.2,0,0,0,3.108,0L134.8,136.347l3.413,3.412Z" transform="translate(-82.613 -111.846)" fill="#a6a6a5"/>
  </g>
</svg>
