<svg xmlns="http://www.w3.org/2000/svg" width="24" height="24" viewBox="0 0 24 24">
  <g id="Group_5291" data-name="Group 5291" transform="translate(-253 -940)">
    <g id="whatsapp_twotone" data-name="whatsapp/twotone" transform="translate(253 940)">
      <g id="vuesax_twotone_whatsapp" data-name="vuesax/twotone/whatsapp">
        <g id="whatsapp">
          <path id="BG_126" data-name="BG 126" d="M0,0H24V24H0Z" fill="none" opacity="0.58"/>
          <path id="Vector" d="M4.94,18.63A10.017,10.017,0,1,0,1.34,15L0,20Z" transform="translate(2 2)" fill="none" stroke="#674495" stroke-linecap="round" stroke-linejoin="round" stroke-width="1.5"/>
          <path id="Vector-2" data-name="Vector" d="M10,8.19a1.231,1.231,0,0,1-.13.55,2.386,2.386,0,0,1-.34.51,2.279,2.279,0,0,1-.82.59,2.447,2.447,0,0,1-.98.19A4.073,4.073,0,0,1,6.1,9.66a9.159,9.159,0,0,1-1.72-.99,14.45,14.45,0,0,1-1.64-1.4,14.3,14.3,0,0,1-1.4-1.64A8.8,8.8,0,0,1,.36,3.92,4.234,4.234,0,0,1,0,2.28a2.613,2.613,0,0,1,.18-.97A2.233,2.233,0,0,1,.76.47,1.445,1.445,0,0,1,1.8,0a.978.978,0,0,1,.41.09.828.828,0,0,1,.34.28L3.71,2.01a1.613,1.613,0,0,1,.2.35.73.73,0,0,1,.07.31.717.717,0,0,1-.11.36,1.759,1.759,0,0,1-.28.36l-.38.4a.257.257,0,0,0-.08.2.5.5,0,0,0,.02.12.689.689,0,0,1,.04.1,4.008,4.008,0,0,0,.47.64c.23.26.47.53.73.79s.53.51.8.74a3.84,3.84,0,0,0,.65.46c.03.01.06.03.09.04a.328.328,0,0,0,.34-.07l.38-.38a1.606,1.606,0,0,1,.36-.28.689.689,0,0,1,.36-.11.73.73,0,0,1,.31.07,1.82,1.82,0,0,1,.35.2L9.69,7.49a.844.844,0,0,1,.28.32C9.97,7.93,10,8.05,10,8.19Z" transform="translate(7 6.98)" fill="none" stroke="#674495" stroke-width="1.5" opacity="0.4"/>
          <path id="Vector-3" data-name="Vector" d="M0,0H24V24H0Z" fill="none" opacity="0"/>
        </g>
      </g>
    </g>
  </g>
</svg>
