<svg xmlns="http://www.w3.org/2000/svg" width="42.578" height="50" viewBox="0 0 42.578 50">
  <g id="surface1" transform="translate(0 0.001)">
    <path id="Path_1475" data-name="Path 1475" d="M42.528,13.565v-.039c-.022-.48-.036-.988-.045-1.554a5.3,5.3,0,0,0-4.99-5.191,20.563,20.563,0,0,1-14-5.9L23.464.851a3.2,3.2,0,0,0-4.349,0l-.032.031a20.565,20.565,0,0,1-14,5.9A5.3,5.3,0,0,0,.1,11.973c-.008.562-.023,1.07-.045,1.553l0,.09C-.062,19.479-.2,26.774,2.24,33.4a25.179,25.179,0,0,0,6.041,9.409A31.6,31.6,0,0,0,20.1,49.8a3.661,3.661,0,0,0,.484.132,3.578,3.578,0,0,0,1.407,0,3.672,3.672,0,0,0,.486-.133,31.62,31.62,0,0,0,11.808-7,25.214,25.214,0,0,0,6.041-9.411C42.778,26.748,42.64,19.438,42.528,13.565ZM37.576,32.374C35,39.354,29.747,44.147,21.511,47.027a.737.737,0,0,1-.093.025.658.658,0,0,1-.258,0,.731.731,0,0,1-.092-.025c-8.244-2.875-13.5-7.665-16.075-14.645-2.25-6.1-2.122-12.8-2.01-18.709V13.64c.023-.508.038-1.04.047-1.624a2.355,2.355,0,0,1,2.22-2.305,25.742,25.742,0,0,0,8.737-1.922,22.859,22.859,0,0,0,7.12-4.784.271.271,0,0,1,.363,0,22.867,22.867,0,0,0,7.12,4.784,25.743,25.743,0,0,0,8.738,1.922,2.355,2.355,0,0,1,2.219,2.306c.009.587.024,1.119.047,1.624C39.707,19.555,39.832,26.258,37.576,32.374Zm0,0" transform="translate(0 0)" fill="#674495"/>
    <path id="Path_1476" data-name="Path 1476" d="M102.859,128.41a12.461,12.461,0,1,0,12.461,12.461A12.475,12.475,0,0,0,102.859,128.41Zm0,21.988a9.527,9.527,0,1,1,9.526-9.527A9.537,9.537,0,0,1,102.859,150.4Zm0,0" transform="translate(-81.57 -115.871)" fill="#674495"/>
    <path id="Path_1477" data-name="Path 1477" d="M163.536,212.421l-5.788,5.788-1.571-1.571a1.467,1.467,0,0,0-2.075,2.074l2.609,2.608a1.467,1.467,0,0,0,2.074,0l6.825-6.825a1.467,1.467,0,0,0-2.075-2.074Zm0,0" transform="translate(-138.666 -191.29)" fill="#a6a6a5"/>
  </g>
</svg>
