<svg xmlns="http://www.w3.org/2000/svg" width="54.012" height="50" viewBox="0 0 54.012 50">
  <g id="car-repair" transform="translate(0 -19.017)">
    <path id="Path_1480" data-name="Path 1480" d="M50.089,44.578,45.317,32.835a5.436,5.436,0,0,0-5.055-3.4H36.48c.026-.29.041-.582.041-.876a9.539,9.539,0,0,0-19.077,0c0,.293.015.585.041.876h-4.65a5.448,5.448,0,0,0-5.181,3.746L3.883,44.6A6.634,6.634,0,0,0,0,50.626v7.205a3.906,3.906,0,0,0,3.642,3.892v3.392a3.906,3.906,0,0,0,3.9,3.9h6.288a3.906,3.906,0,0,0,3.9-3.9V61.733H36.279v3.382a3.906,3.906,0,0,0,3.9,3.9h6.288a3.906,3.906,0,0,0,3.9-3.9V61.723a3.906,3.906,0,0,0,3.642-3.892V50.626A6.634,6.634,0,0,0,50.089,44.578Zm-7,2.586h4.3a3.465,3.465,0,0,1,3.462,3.462v.658h-4.3a3.465,3.465,0,0,1-3.462-3.462ZM3.165,50.626a3.465,3.465,0,0,1,3.462-3.462h4.3v.658a3.465,3.465,0,0,1-3.462,3.462h-4.3ZM26.983,22.182a6.374,6.374,0,1,1,0,12.748c-.173,0-1.188-.11-1.27-.126a6.354,6.354,0,0,1-4.794-4.278h0a6.379,6.379,0,0,1,6.064-8.342ZM10.66,34.17A2.288,2.288,0,0,1,12.836,32.6h5.5a9.543,9.543,0,0,0,17.287,0h4.636a2.283,2.283,0,0,1,2.123,1.43L46.437,44H7.413Zm3.908,30.946a.738.738,0,0,1-.737.737H7.544a.738.738,0,0,1-.737-.737V61.733h7.761Zm32.637,0a.738.738,0,0,1-.737.737H40.181a.738.738,0,0,1-.737-.737V61.733h7.761Zm2.905-6.547H3.9a.738.738,0,0,1-.737-.737V54.449h4.3a6.634,6.634,0,0,0,6.626-6.626v-.658h25.83v.658a6.634,6.634,0,0,0,6.626,6.626h4.3v3.382A.738.738,0,0,1,50.111,58.568Z" fill="#674495"/>
    <path id="Path_1481" data-name="Path 1481" d="M217.945,85.329a1.582,1.582,0,0,0,1.136.551h.065a1.583,1.583,0,0,0,1.113-.457l3.612-3.572a1.582,1.582,0,1,0-2.225-2.25l-2.4,2.377-.574-.669a1.582,1.582,0,0,0-2.4,2.061Z" transform="translate(-193.11 -53.785)" fill="#a6a6a5"/>
    <path id="Path_1482" data-name="Path 1482" d="M187.435,324.886H172.866a1.582,1.582,0,1,0,0,3.165h14.568a1.582,1.582,0,1,0,0-3.165Z" transform="translate(-153.215 -273.602)" fill="#a6a6a5"/>
  </g>
</svg>
