<svg xmlns="http://www.w3.org/2000/svg" width="46.03" height="50" viewBox="0 0 46.03 50">
  <g id="price-tag" transform="translate(-20.328)">
    <path id="Path_1478" data-name="Path 1478" d="M65.6,31.076l-.006-.008L53.623,13.584A2.944,2.944,0,0,0,51.8,12.352l-.037-.008-7.4-1.415A9.905,9.905,0,1,0,26.579,16.05l-5.429,5.676a2.951,2.951,0,0,0-.821,2.047V45.6a4.4,4.4,0,0,0,4.4,4.4H44.267a4.379,4.379,0,0,0,3.205-1.392l16.946-11.43a4.394,4.394,0,0,0,1.186-6.1ZM34.5,2.93a7.041,7.041,0,0,1,6.968,7.445c-6.9-1.319-6.506-1.247-6.62-1.258h0a2.965,2.965,0,0,0-2.487.894l-3.7,3.871a7.14,7.14,0,0,1-1.135-3.874A7.037,7.037,0,0,1,34.5,2.93ZM45.732,45.605a1.466,1.466,0,0,1-1.438,1.464H24.723a1.467,1.467,0,0,1-1.465-1.465V23.773a.035.035,0,0,1,.009-.021l5.389-5.635a9.707,9.707,0,0,0,5.794,1.9,1.465,1.465,0,1,0,0-2.93,6.788,6.788,0,0,1-3.737-1.121l3.758-3.93a.028.028,0,0,1,.023-.01.024.024,0,0,1,.022.01L45.724,23.752a.03.03,0,0,1,.009.021ZM62.78,34.748,48.662,44.272v-4.28l9.467-6.386a1.465,1.465,0,1,0-1.639-2.429l-7.828,5.28V32.509l6.008-4.052a1.465,1.465,0,1,0-1.638-2.429l-4.37,2.948v-5.2a2.946,2.946,0,0,0-.821-2.047l-8.367-8.748,11.709,2.238a.034.034,0,0,1,.015.012l.006.009L63.178,32.719A1.463,1.463,0,0,1,62.78,34.748Z" fill="#674495"/>
    <path id="Path_1479" data-name="Path 1479" d="M117.58,236.849a14.561,14.561,0,0,1-3.7-1.721c-.627-.492-.369-2.208.843-2.573a3.8,3.8,0,0,1,2.659.383,1.461,1.461,0,1,0,1.24-2.645,8.818,8.818,0,0,0-1.611-.561v-.759a1.465,1.465,0,0,0-2.93,0v.72c-3.623.922-4.585,5.72-2.009,7.74a15.8,15.8,0,0,0,4.534,2.179c2.568.908,1.447,4.438-1.117,4.455a4.217,4.217,0,0,1-3.029-.795,1.465,1.465,0,0,0-2.06.475,1.5,1.5,0,0,0,.5,2.008,6.579,6.579,0,0,0,3.176,1.191v.55a1.465,1.465,0,0,0,2.93,0v-.707C121.732,245.466,122.624,238.632,117.58,236.849Z" transform="translate(-81.092 -205.29)" fill="#a6a6a5"/>
  </g>
</svg>
