<svg xmlns="http://www.w3.org/2000/svg" width="51.142" height="50" viewBox="0 0 51.142 50">
  <g id="feature" transform="translate(0 -8.5)">
    <path id="Path_1473" data-name="Path 1473" d="M51.069,27.07a1.5,1.5,0,0,0-1.328-1.032L33.092,24.96,26.916,9.444a1.5,1.5,0,0,0-2.784,0L17.956,24.96,1.4,26.039a1.5,1.5,0,0,0-.864,2.644L13.28,39.35,9.156,55.536a1.5,1.5,0,0,0,2.252,1.636L25.524,48.25,39.64,57.173a1.5,1.5,0,0,0,2.252-1.636L37.769,39.354,50.6,28.686A1.5,1.5,0,0,0,51.069,27.07ZM35.125,37.654a1.5,1.5,0,0,0-.494,1.522l3.428,13.452L26.324,45.212a1.5,1.5,0,0,0-1.6,0L12.989,52.629l3.428-13.452a1.5,1.5,0,0,0-.49-1.519l-10.6-8.872,13.767-.9a1.5,1.5,0,0,0,1.295-.941l5.134-12.9,5.134,12.9a1.5,1.5,0,0,0,1.3.941l13.841.9Z" fill="#674495"/>
    <path id="Path_1474" data-name="Path 1474" d="M164.81,171.69a1.5,1.5,0,0,0-2.784,0l-2.008,5.045-5.42.351a1.5,1.5,0,0,0-.86,2.648l4.178,3.47-1.341,5.262a1.5,1.5,0,0,0,2.252,1.637l4.591-2.9,4.59,2.9a1.5,1.5,0,0,0,2.252-1.636l-1.341-5.262,4.178-3.47a1.5,1.5,0,0,0-.86-2.648l-5.419-.351Zm1.467,9.814a1.5,1.5,0,0,0-.495,1.523l.645,2.532-2.209-1.4a1.5,1.5,0,0,0-1.6,0l-2.211,1.4.645-2.533a1.5,1.5,0,0,0-.495-1.523l-2.011-1.671,2.61-.169a1.5,1.5,0,0,0,1.3-.941l.967-2.428.967,2.428a1.5,1.5,0,0,0,1.3.941l2.608.169Z" transform="translate(-137.893 -146.04)" fill="#a6a6a5"/>
    <ellipse id="Ellipse_50" data-name="Ellipse 50" cx="1.5" cy="2" rx="1.5" ry="2" transform="translate(24.143 54.5)" fill="#674495"/>
    <circle id="Ellipse_51" data-name="Ellipse 51" cx="1.498" cy="1.498" r="1.498" transform="translate(43.633 42.911) rotate(-72.002)" fill="#674495"/>
    <circle id="Ellipse_52" data-name="Ellipse 52" cx="1.498" cy="1.498" r="1.498" transform="matrix(0.588, -0.809, 0.809, 0.588, 35.808, 18.831)" fill="#674495"/>
    <circle id="Ellipse_53" data-name="Ellipse 53" cx="1.498" cy="1.498" r="1.498" transform="matrix(0.809, -0.588, 0.588, 0.809, 11.149, 18.167)" fill="#674495"/>
    <circle id="Ellipse_54" data-name="Ellipse 54" cx="1.498" cy="1.498" r="1.498" transform="translate(3.733 40.991) rotate(-17.998)" fill="#674495"/>
  </g>
</svg>
