<svg xmlns="http://www.w3.org/2000/svg" width="24" height="24" viewBox="0 0 24 24">
  <g id="Group_4759" data-name="Group 4759" transform="translate(0.159 0.002)">
    <rect id="Rectangle_436" data-name="Rectangle 436" width="24" height="24" transform="translate(-0.159 -0.002)" fill="none"/>
    <g id="Group_4373" data-name="Group 4373" transform="translate(1.209 0.971)">
      <g id="Iconly_Bold_Star" data-name="Iconly/Bold/Star" transform="translate(0)">
        <g id="Star">
          <path id="Star-2" data-name="Star" d="M17.9,13.288a1.237,1.237,0,0,0-.359,1.091l1,5.531a1.214,1.214,0,0,1-.506,1.214,1.238,1.238,0,0,1-1.315.09l-4.979-2.6a1.271,1.271,0,0,0-.562-.147h-.3a.913.913,0,0,0-.3.1l-4.98,2.609a1.314,1.314,0,0,1-.8.124,1.25,1.25,0,0,1-1-1.429l1-5.531a1.258,1.258,0,0,0-.359-1.1L.37,9.309a1.214,1.214,0,0,1-.3-1.27,1.262,1.262,0,0,1,1-.843l5.587-.811A1.25,1.25,0,0,0,7.644,5.7L10.106.652a1.17,1.17,0,0,1,.225-.3l.1-.079a.755.755,0,0,1,.181-.146l.123-.045L10.926,0H11.4a1.258,1.258,0,0,1,.989.675L14.884,5.7a1.249,1.249,0,0,0,.933.685L21.4,7.2a1.274,1.274,0,0,1,1.023.843,1.221,1.221,0,0,1-.326,1.27Z" transform="translate(0)"/>
        </g>
      </g>
    </g>
  </g>
</svg>
