<svg id="Logo" xmlns="http://www.w3.org/2000/svg" width="81" height="81" viewBox="0 0 81 81">
  <ellipse id="Ellipse_47" data-name="Ellipse 47" cx="39.901" cy="39.901" rx="39.901" ry="39.901" transform="translate(0.599 0.599)" fill="#472b73"/>
  <path id="Ellipse_47_-_Outline" data-name="Ellipse 47 - Outline" d="M39-1.5a40.8,40.8,0,0,1,8.162.823A40.282,40.282,0,0,1,61.644,5.417,40.616,40.616,0,0,1,76.317,23.235a40.3,40.3,0,0,1,2.36,7.6,40.889,40.889,0,0,1,0,16.323,40.282,40.282,0,0,1-6.094,14.483A40.616,40.616,0,0,1,54.765,76.317a40.3,40.3,0,0,1-7.6,2.36,40.889,40.889,0,0,1-16.323,0,40.282,40.282,0,0,1-14.483-6.094A40.616,40.616,0,0,1,1.683,54.765a40.3,40.3,0,0,1-2.36-7.6,40.889,40.889,0,0,1,0-16.323A40.282,40.282,0,0,1,5.417,16.356,40.616,40.616,0,0,1,23.235,1.683a40.3,40.3,0,0,1,7.6-2.36A40.8,40.8,0,0,1,39-1.5Zm0,79.8A39.3,39.3,0,1,0-.3,39,39.347,39.347,0,0,0,39,78.3Z" transform="translate(1.5 1.5)" fill="#472b73"/>
  <path id="Ellipse_48" data-name="Ellipse 48" d="M36.063-1.5a38.082,38.082,0,0,1,7.569.758,37.517,37.517,0,0,1,27.041,22.03,36.949,36.949,0,0,1,2.189,7.005,37.425,37.425,0,0,1,0,15.04,36.98,36.98,0,0,1-5.653,13.344A37.568,37.568,0,0,1,43.632,72.368a38.173,38.173,0,0,1-15.138,0A37.517,37.517,0,0,1,1.453,50.338,36.948,36.948,0,0,1-.737,43.333a37.425,37.425,0,0,1,0-15.04A36.98,36.98,0,0,1,4.917,14.949,37.567,37.567,0,0,1,28.494-.742,38.082,38.082,0,0,1,36.063-1.5Zm0,73.429A36.117,36.117,0,1,0-.3,35.813,36.283,36.283,0,0,0,36.063,71.929Z" transform="translate(4.792 5.411)" fill="#fff"/>
  <g id="Group_5271" data-name="Group 5271" transform="translate(22.058 19.009)">
    <path id="Path_1414" data-name="Path 1414" d="M286.833,270.363a12.776,12.776,0,0,1-.819,1.305,11.238,11.238,0,0,1-3.372,2.7c-2.18,1.172-4.538,1.954-6.818,2.907a25.387,25.387,0,0,0-5.714,2.905,5.736,5.736,0,0,1-1.125.9c-.575.394-.655-.952-.7-1.227-.126-.736-.212-1.477-.3-2.218a29.871,29.871,0,0,0-.693-4.329c-.312-1.164-.482-2.358-.757-3.533-.436-1.866-.936-3.725-1.2-5.629-.028-.206,0-.335.206-.423a4.628,4.628,0,0,0,2.115-2.5,11.577,11.577,0,0,0,.751-2.741,16.578,16.578,0,0,0,.261-4.3,6.981,6.981,0,0,0-2.471-5.412,1.658,1.658,0,0,0-2.262.007,6.234,6.234,0,0,0-1.7,3.2,22.808,22.808,0,0,0-.471,6.313,8.241,8.241,0,0,0,1.061,4.125,3.452,3.452,0,0,0,1.287,1.226.558.558,0,0,1,.352.466c.117,1.061.214,2.121.38,3.174q.054.346.119.69a35.416,35.416,0,0,0,.923,5.018c.033.1.066.236-.072.3s-.2-.042-.275-.136a3.925,3.925,0,0,0-.993-.789,24.154,24.154,0,0,0-2.852-1.7c-2.73-1.25-5.646-2.057-8.355-3.363a12.928,12.928,0,0,1-3.985-2.916c-.589-.641-.936-1.419-1.479-2.137a5.657,5.657,0,0,0,.569,1.809,6.822,6.822,0,0,0,1.367,2.1,15.379,15.379,0,0,0,4.38,2.909c1.8.868,3.657,1.6,5.384,2.61a28.581,28.581,0,0,1,3.82,2.466,14.945,14.945,0,0,1,1.711,1.505c.462.517.8,1.14,1.218,1.7a5.061,5.061,0,0,1,.523,2.71,50.508,50.508,0,0,1-.1,6.277,37.952,37.952,0,0,1-.554,6.082.326.326,0,0,0,.064.327.384.384,0,0,0,.166.069c.306.072.959.265,1.182-.06a.8.8,0,0,0,.1-.479c-.053-1.927.363-3.882.419-5.813a3.139,3.139,0,0,1,.841-1.989,17.914,17.914,0,0,1,3.9-3.687c.934-.6,1.886-1.173,2.864-1.7,1.714-.92,3.557-1.582,5.264-2.524a14.464,14.464,0,0,0,4.772-3.5,5.869,5.869,0,0,0,1.3-2.987C286.9,270.1,286.9,270.262,286.833,270.363Z" transform="translate(-247.882 -248.329)" fill="#fff"/>
    <path id="Path_1415" data-name="Path 1415" d="M348.78,273.764a24.1,24.1,0,0,0,1.152-2.536,19.754,19.754,0,0,0,.629-6.982.455.455,0,0,1,.1-.405,7.444,7.444,0,0,1,2.471-1.876,1.136,1.136,0,0,1,1.7.823,7.333,7.333,0,0,1-.255,4.664,13.5,13.5,0,0,1-1.859,3.085,11.793,11.793,0,0,1-2.815,2.579C349.585,273.331,349.234,273.5,348.78,273.764Z" transform="translate(-329.117 -259.198)" fill="#fff"/>
    <path id="Path_1416" data-name="Path 1416" d="M292.127,265.078a5.869,5.869,0,0,1,.259-1.458c.094-.309.168-.625.285-.925a1.1,1.1,0,0,1,1.6-.622,6.046,6.046,0,0,1,1.656,1.191,6.233,6.233,0,0,0,.557.544.761.761,0,0,1,.3.771,21.913,21.913,0,0,0,.189,6.7,10.612,10.612,0,0,0,1.071,2.68,3.813,3.813,0,0,0-.628-.277,6.791,6.791,0,0,1-.863-.583,11.729,11.729,0,0,1-1.949-1.944,12.012,12.012,0,0,1-1.664-2.744c-.218-.507-.361-1.037-.543-1.551A4.693,4.693,0,0,1,292.127,265.078Z" transform="translate(-283.501 -259.286)" fill="#fff"/>
    <path id="Path_1417" data-name="Path 1417" d="M269.435,280.861a.985.985,0,0,1,1.058-.761,7.065,7.065,0,0,1,2.553.695c.162.066.157.2.176.317a9.157,9.157,0,0,0,1.068,2.988,11.3,11.3,0,0,0,3.84,4.283,6.57,6.57,0,0,1,.8.592,14.143,14.143,0,0,1-2.86-.8,10.178,10.178,0,0,1-6.543-6.165A1.484,1.484,0,0,1,269.435,280.861Z" transform="translate(-265.174 -273.909)" fill="#fff"/>
    <path id="Path_1418" data-name="Path 1418" d="M351.943,289.68a11.539,11.539,0,0,0,3.61-2.808,14.381,14.381,0,0,0,1.743-2.561,11.442,11.442,0,0,0,.62-1.405c.141-.388.17-1.146.614-1.289a9.4,9.4,0,0,1,2.1-.512c.9-.075,1.29.258,1.227,1.13a5.472,5.472,0,0,1-1.546,3.3c-.229.253-.448.512-.693.754a13.928,13.928,0,0,1-5.944,3.085A5.137,5.137,0,0,1,351.943,289.68Z" transform="translate(-331.664 -274.708)" fill="#fff"/>
  </g>
  <g id="Group_5272" data-name="Group 5272" transform="translate(14.106 11.129)">
    <path id="Path_1419" data-name="Path 1419" d="M210.766,278.429l-3.893-1.424.339-.432,1.906.717c.523.2.991.377,1.419.579l.007-.009c-.29-.369-.58-.805-.876-1.261l-1.119-1.727.336-.428,2.228,3.543Z" transform="translate(-206.873 -263.402)" fill="#fff"/>
    <path id="Path_1420" data-name="Path 1420" d="M225.6,265.417a.319.319,0,0,1-.452.449.313.313,0,0,1,0-.455A.305.305,0,0,1,225.6,265.417Zm2.147,2.975-1.993-2.007.365-.363,1.993,2.008Z" transform="translate(-221.508 -256.052)" fill="#fff"/>
    <path id="Path_1421" data-name="Path 1421" d="M235.49,253.981l.4-.327,2.635,3.207-.4.327Z" transform="translate(-229.913 -246.663)" fill="#fff"/>
    <path id="Path_1422" data-name="Path 1422" d="M248.083,244.6l.426-.287,2.32,3.441-.427.287Z" transform="translate(-240.052 -239.141)" fill="#fff"/>
    <path id="Path_1423" data-name="Path 1423" d="M267.91,242.446l-.2-.3-.016.008a1.054,1.054,0,0,1-.578.77.806.806,0,0,1-1.141-.328c-.312-.608.058-1.219,1.033-1.713l-.027-.052a.583.583,0,0,0-.871-.289,1.412,1.412,0,0,0-.559.524l-.259-.248a1.756,1.756,0,0,1,.712-.648,1,1,0,0,1,1.486.538l.483.941a3.988,3.988,0,0,0,.351.582Zm-.727-1.25c-.5.246-1.026.625-.775,1.114a.455.455,0,0,0,.656.215.7.7,0,0,0,.392-.734.548.548,0,0,0-.049-.159Z" transform="translate(-253.909 -235.683)" fill="#fff"/>
    <path id="Path_1424" data-name="Path 1424" d="M288.889,229.536c.054.2.115.418.224.745l.52,1.558a1.627,1.627,0,0,1,.026,1.353,1.5,1.5,0,0,1-.869.647,1.824,1.824,0,0,1-.967.076l0-.412a1.6,1.6,0,0,0,.858-.052.852.852,0,0,0,.552-1.226l-.1-.3-.011,0a1.01,1.01,0,0,1-.7.734,1.265,1.265,0,0,1-1.579-.928,1.358,1.358,0,0,1,.734-1.829.941.941,0,0,1,.993.187l.011,0-.113-.412Zm-.151,1.228a.753.753,0,0,0-.956-.5c-.466.156-.667.66-.46,1.281.176.527.588.876,1.115.7a.752.752,0,0,0,.51-.725.888.888,0,0,0-.048-.274Z" transform="translate(-271.173 -227.245)" fill="#fff"/>
    <path id="Path_1425" data-name="Path 1425" d="M310.926,226.8a.907.907,0,0,0,1.121.807,1.864,1.864,0,0,0,.748-.275l.148.348a2.292,2.292,0,0,1-.9.33,1.314,1.314,0,0,1-1.61-1.175,1.374,1.374,0,0,1,1.054-1.726,1.2,1.2,0,0,1,1.375,1.12,1.978,1.978,0,0,1,.023.239Zm1.426-.615a.733.733,0,0,0-.843-.705.853.853,0,0,0-.639.956Z" transform="translate(-290.229 -223.666)" fill="#fff"/>
    <path id="Path_1426" data-name="Path 1426" d="M347.553,217.8a7.27,7.27,0,0,1,1.085.009,2.257,2.257,0,0,1,1.549.623,1.815,1.815,0,0,1,.435,1.457,2.084,2.084,0,0,1-.694,1.479,2.427,2.427,0,0,1-1.784.419,8.26,8.26,0,0,1-.917-.124Zm.214,3.514a3.219,3.219,0,0,0,.51.073,1.515,1.515,0,0,0,1.812-1.525,1.405,1.405,0,0,0-1.463-1.649,2.885,2.885,0,0,0-.6,0Z" transform="translate(-319.876 -217.78)" fill="#fff"/>
    <path id="Path_1427" data-name="Path 1427" d="M373.356,225.432l.622-2.76.5.113-.622,2.76Zm1.356-3.41a.319.319,0,0,1-.622-.14.314.314,0,0,1,.385-.243A.305.305,0,0,1,374.712,222.022Z" transform="translate(-340.913 -220.88)" fill="#fff"/>
    <path id="Path_1428" data-name="Path 1428" d="M387.926,233.37a.906.906,0,0,0,.583,1.251,1.866,1.866,0,0,0,.787.126l-.042.376a2.292,2.292,0,0,1-.945-.152,1.314,1.314,0,0,1-.83-1.812,1.373,1.373,0,0,1,1.763-.99,1.2,1.2,0,0,1,.652,1.649,1.869,1.869,0,0,1-.1.22Zm1.544.161a.732.732,0,0,0-.39-1.027.852.852,0,0,0-1.024.521Z" transform="translate(-352.197 -229.301)" fill="#fff"/>
    <path id="Path_1429" data-name="Path 1429" d="M410.127,237.012l-.372.723.655.337-.179.348-.655-.337-.7,1.357c-.161.312-.163.534.092.665a1.165,1.165,0,0,0,.281.105l-.155.354a1.26,1.26,0,0,1-.438-.146.714.714,0,0,1-.4-.446,1.049,1.049,0,0,1,.16-.746l.706-1.373-.39-.2.179-.348.39.2.31-.6Z" transform="translate(-369 -233.175)" fill="#fff"/>
  </g>
  <g id="Group_5273" data-name="Group 5273" transform="translate(26.598 62.598)">
    <path id="Path_1430" data-name="Path 1430" d="M276.437,476.566l-.1-.045c-.446-.191-.72-.406-.765-.777a3.351,3.351,0,0,1-.831-.02,7.622,7.622,0,0,1-1.881-.485,3.268,3.268,0,0,1-1.416-1,1.461,1.461,0,0,1-.162-1.47,2.31,2.31,0,0,1,.721-.942l.15.152a2.254,2.254,0,0,0-.416.607,1.229,1.229,0,0,0,.187,1.222,3.215,3.215,0,0,0,1.327.9,7.716,7.716,0,0,0,1.638.474,4,4,0,0,0,.683.065l.462-.526.385-.094.014.042a1.866,1.866,0,0,0-.314.445.473.473,0,0,0-.012.455.956.956,0,0,0,.493.408l.082.035Zm-2.331-4.239c-.114-.25-.217-.46-.338-.682a4.36,4.36,0,0,1,.537-.261,4.568,4.568,0,0,1,.318.689A2.55,2.55,0,0,1,274.107,472.327Zm.9.319c-.114-.25-.217-.46-.338-.682a4.333,4.333,0,0,1,.537-.261,4.587,4.587,0,0,1,.319.69A2.552,2.552,0,0,1,275.009,472.646Z" transform="translate(-271.148 -469.749)" fill="#fff"/>
    <path id="Path_1431" data-name="Path 1431" d="M300.559,490.633c-.155-.227-.294-.415-.451-.613a4.376,4.376,0,0,1,.483-.351,4.593,4.593,0,0,1,.433.624A2.558,2.558,0,0,1,300.559,490.633Zm.1-2.549a3.323,3.323,0,0,0,.969.134c.183-.02.3-.061.322-.139a3.855,3.855,0,0,0-.214-1.255,3.722,3.722,0,0,1,.484-.438l.024.005a3.266,3.266,0,0,1,.151,1.524,1.391,1.391,0,0,1-.539.782c-.265.158-.624.147-1.361-.026l-.058-.013a.311.311,0,0,1-.265-.389.3.3,0,0,1,.4-.2Zm.845,2.706c-.155-.227-.294-.415-.451-.613a4.351,4.351,0,0,1,.483-.351,4.572,4.572,0,0,1,.433.624A2.551,2.551,0,0,1,301.5,490.79Z" transform="translate(-294.465 -481.826)" fill="#fff"/>
    <path id="Path_1432" data-name="Path 1432" d="M316.751,482a6.028,6.028,0,0,0,.2-.93l.073-.46c.137-.859.238-2.122.288-2.947a4.431,4.431,0,0,1,.558-.421l.042.021c-.06,1.039-.225,2.23-.4,3.323a7.23,7.23,0,0,1-.157.769c-.056.255-.219.432-.55.687Z" transform="translate(-307.864 -474.462)" fill="#fff"/>
    <path id="Path_1433" data-name="Path 1433" d="M326.716,487.884c-.011.408.146.742.764.781a2.179,2.179,0,0,0,1.091-.24c.066-.029.1-.069.106-.107a1.478,1.478,0,0,0-.407-.93,3.758,3.758,0,0,0-.962-.78c-.115-.064-.151-.128-.147-.185a1.5,1.5,0,0,1,.286-.524l.04,0a4.818,4.818,0,0,1,1.118,1.057,1.772,1.772,0,0,1,.418,1.154,1.852,1.852,0,0,1-.26.816,2.857,2.857,0,0,1-1.4.353.878.878,0,0,1-.885-1.061,2.043,2.043,0,0,1,.047-.345Z" transform="translate(-315.692 -481.433)" fill="#fff"/>
    <path id="Path_1434" data-name="Path 1434" d="M358.723,490.433a3.685,3.685,0,0,0-1.4-.042.81.81,0,0,0-.582.335l.162.378-.076.393-.051.023-.4-.695a.968.968,0,0,1,.922-1.016,4.859,4.859,0,0,1,1.668.148,2.407,2.407,0,0,0,.859.014l.429-.075.006.009-.216.521a9.18,9.18,0,0,0-1.253.521c-1.015.569-1.654,1.231-1.552,1.855.159.975,1.325,1.364,2.687,1.142a8.378,8.378,0,0,0,1.238-.307l.022.044a5.971,5.971,0,0,1-.7.687,5.23,5.23,0,0,1-.909.235c-1.284.209-2.451-.218-2.664-1.521a2.591,2.591,0,0,1,1.826-2.636Zm.057,1.7a4.43,4.43,0,0,1,.668.406,1.945,1.945,0,0,1-.331.526c-.219-.143-.434-.262-.655-.389C358.568,492.49,358.673,492.3,358.781,492.138Zm.728-1.437.015,0c.085.4.45.485.953.4l.249-.04.1.6-.269.044c-.63.1-1.084-.04-1.176-.6a2.4,2.4,0,0,1-.028-.265Z" transform="translate(-339.761 -484.563)" fill="#fff"/>
    <path id="Path_1435" data-name="Path 1435" d="M379.206,477.061a1.309,1.309,0,0,0,.507-.306c.119-.12.161-.291.063-.614-.275-.914-.573-1.718-.959-2.743l-.083-.223.3-.536.026,0c.412,1.042.751,2.155,1.17,3.548.063.209.308.473.858.308l.062-.018.175.582-.1.03a.957.957,0,0,1-1.069-.2l-.019.006a1.054,1.054,0,0,1-.77.757l-.081.024a.311.311,0,0,1-.423-.205.3.3,0,0,1,.248-.377Z" transform="translate(-357.769 -470.758)" fill="#fff"/>
    <path id="Path_1436" data-name="Path 1436" d="M391.547,485.17c.354-.141.668-.423.637-.7l-.056-.53.23-.347.04.02a2.469,2.469,0,0,0,.1.552.463.463,0,0,0,.3.306.948.948,0,0,0,.64-.05l.083-.033.224.565-.106.042a1.007,1.007,0,0,1-1.126-.074l-.018.007a1.078,1.078,0,0,1-.737.814l-.088.035a.311.311,0,0,1-.439-.168.3.3,0,0,1,.215-.4Zm1.443,2.121c-.257-.1-.478-.173-.72-.246a4.352,4.352,0,0,1,.2-.564,4.6,4.6,0,0,1,.712.264A2.549,2.549,0,0,1,392.99,487.291Zm.865-.41c-.257-.1-.479-.173-.72-.246a4.316,4.316,0,0,1,.2-.564,4.575,4.575,0,0,1,.712.264A2.561,2.561,0,0,1,393.855,486.881Z" transform="translate(-367.814 -479.577)" fill="#fff"/>
    <path id="Path_1437" data-name="Path 1437" d="M396.442,463.745c-.265-.071-.494-.124-.741-.172a4.357,4.357,0,0,1,.139-.581,4.572,4.572,0,0,1,.735.192A2.556,2.556,0,0,1,396.442,463.745Zm.229,1.021c-.266-.071-.494-.124-.742-.172a4.352,4.352,0,0,1,.139-.581,4.6,4.6,0,0,1,.735.192A2.547,2.547,0,0,1,396.671,464.766Zm.819-.494c-.266-.071-.494-.124-.742-.172a4.338,4.338,0,0,1,.139-.581,4.6,4.6,0,0,1,.735.192A2.548,2.548,0,0,1,397.491,464.271Zm.3,3.225a4.182,4.182,0,0,0,.914-.581c.239-.226.393-.509.337-.619a.376.376,0,0,0-.057-.088,5.549,5.549,0,0,1-.488.274,1.2,1.2,0,0,1-1.29.091.832.832,0,0,1-.224-.269,1.334,1.334,0,0,1-.1-1,.944.944,0,0,1,.42-.576c.356-.185.81-.008,1.272.4a3,3,0,0,1,.705.908,1.1,1.1,0,0,1,.131.778c-.119.447-.57.825-1.351,1.231l-.356.184a.311.311,0,0,1-.454-.123.3.3,0,0,1,.174-.417Zm-.3-2.167a.578.578,0,0,0-.332.649c.177.341.812.146,1.5-.218C398.369,465.405,397.849,465.145,397.493,465.329Z" transform="translate(-371.429 -462.992)" fill="#fff"/>
  </g>
  <path id="Path_1438" data-name="Path 1438" d="M448.179,208.607a.53.53,0,0,0-.105-.6,3.84,3.84,0,0,0-1.142-.839c-.3.018-.47-.243-.73-.31l-.035-.03-.047-.007a.653.653,0,0,1-.3-.328c-.178-.253-.262-.582-.626-.683l-.007,0c.028-.163.081-.285-.217-.3-.384-.013-.655-.291-.5-.63.1-.216-.32-.253-.075-.406a.306.306,0,0,1,.214-.019c-.044-.058-.107-.016-.159-.029a.379.379,0,0,1-.244-.115c-.051-.22-.454.146-.411-.23,0-.024.009-.048.013-.072.154-.262-.132-.353-.235-.516-.115-.182-.32-.289-.433-.472a.425.425,0,0,1,.091-.354c.138-.411.423-.516.868-.412.419.1.84.188,1.254.309.315.092.442-.015.3-.324-.063-.136-.253-.3-.018-.4a.317.317,0,0,1,.423.252c.019.511.5.884.464,1.4-.006.047-.015.095-.024.141-.006.24.194.215.349.25s.349.018.354.251c0,.025-.071.207.033.075.417-.53.652.114.975.13a8.224,8.224,0,0,0,1.211,1.1c.149.171.33.314.478.486a1.092,1.092,0,0,1,.2.312,1.285,1.285,0,0,0,.584.549.771.771,0,0,1,.117.087,1.807,1.807,0,0,0,.312.272,1.18,1.18,0,0,1,.2.182.2.2,0,0,1,.042.118c-.016.061-.067.1-.089.161-.105.1-.245.027-.527.034.423.162.647.317.633.651a.779.779,0,0,0,.409.616,1.61,1.61,0,0,1,.432.465c.3.476.72.172,1.079.1.11-.022.18-.15.317-.027.2.175-.008.215-.084.319-.173.237-.23.472.118.662a1.072,1.072,0,0,1,.612,1.017c-.084.738.478.738.934.889a.97.97,0,0,0,.281,0c-.381.66-.728-.021-1.087-.044-.073,0-.163-.248-.238-.141-.342.488-.546,0-.8-.1a1.469,1.469,0,0,0-.984.023,1.339,1.339,0,0,1-.927-.793c-.136-.38-.334-.545-.679-.193a.235.235,0,0,1-.33-.074l-.243-.307c.082-.825-.681-.97-1.191-1.32C448.737,209.117,448.232,209.073,448.179,208.607Z" transform="translate(-383.131 -193.801)" fill="#fff"/>
  <path id="Path_1439" data-name="Path 1439" d="M511.068,428.437c-.064.33-.319.551-.442.847a.277.277,0,0,1-.021.2,1.441,1.441,0,0,1-.411.491c-.192.16-.262.417-.532.523-.291.113-.545.235-.845-.194a1.474,1.474,0,0,1-.294.449,1.431,1.431,0,0,0-.312.339c.084-.058.085-.2.327-.238-.183.469-.024,1.013-.413,1.348a.257.257,0,0,1-.369-.022.205.205,0,0,1-.054-.113c-.028-.108.263-.038.1-.218a1.309,1.309,0,0,0-.406-.127c-.137-.068-.173.2-.342.022a.3.3,0,0,1-.06-.391.82.82,0,0,1,.275-.324c.121-.079-.063-.081-.063-.13a.279.279,0,0,1-.011-.2,3.01,3.01,0,0,1,.369-.6c.534-.789,1.075-1.573,1.608-2.362a.572.572,0,0,1,.345-.26c0-.067,0-.134,0-.2.006-.109-.031-.291.029-.312.235-.084.511-.092.759-.167.092-.028.167.171.086.267a.3.3,0,0,0,.012.421c.052.055-.116.432.229.189.056-.039.061.109.1.167.087.15-.121.224,0,.4.08-.209.309-.349.227-.625-.034-.112-.1-.2.05-.212a.327.327,0,0,1,.216.035.156.156,0,0,1-.005.255A.552.552,0,0,0,511.068,428.437Z" transform="translate(-434.513 -372.27)" fill="#fff"/>
  <path id="Path_1440" data-name="Path 1440" d="M232.383,524.223l.328.027.612.823c.118.191.34.345.216.619l-.1.265a5.753,5.753,0,0,0-1.67-.241,1.18,1.18,0,0,0-.774-.154c-.2-.228-.518-.218-.76-.362-.069-.146-.2-.129-.327-.125a1.1,1.1,0,0,0-.434-.488c-.342-.159-.345-.36-.04-.549a1.019,1.019,0,0,1,.675-.071,1.106,1.106,0,0,1,.446.187C231.134,524.877,231.767,524.327,232.383,524.223Z" transform="translate(-210.722 -449.467)" fill="#f3edf1"/>
  <path id="Path_1441" data-name="Path 1441" d="M455.322,477.232l-.722.127a.725.725,0,0,1,.381-.858c-.032-.142.131-.136.278-.142.1-.019.137-.071.148-.132a6.907,6.907,0,0,1,1.041-.931l-.006,0a1.162,1.162,0,0,0,.64-.3c.164-.092.321-.189.492-.275.233-.117.969-.125.155-.439-.3-.115.221-.209.148-.355l.767.035c.323.13.469.09.4-.158l-.037,0c-.1-.127-.273-.248-.091-.394l.262-.056c.051-.077.164-.087.275-.1.128-.009.243-.026.211-.136-.047-.162-.148-.333.177-.424a4.944,4.944,0,0,0,.682-.011c.247-.142-.08-.275-.043-.413a.114.114,0,0,1-.02-.062c-.048-.1-.1-.191.059-.264.283,0,.418.159.63.235a1.21,1.21,0,0,1,.318.228c.489.671.212,1.25-.772,1.618l-.169.233c-.388.4-.528.92-1.319,1.133l-2.951,1.309c-.026.092-.132.146-.238.2-.178.076-.3.191-.464.276A.494.494,0,0,1,455.322,477.232Z" transform="translate(-392.341 -407.608)" fill="#faf8f8"/>
  <path id="Path_1442" data-name="Path 1442" d="M197.884,392.5c-.222.139-.215-.248-.35-.343l.044.308c-.17-.2-.412-.08-.472.208-.147,0-.141-.2-.2-.314a.848.848,0,0,0-.126-.288.583.583,0,0,1-.04-.082c-.1-.246-.092-.526-.188-.774-.017-.041-.031-.083-.046-.125a.215.215,0,0,0-.141-.159.238.238,0,0,1-.059-.044.654.654,0,0,1-.106-.193c-.029-.086-.053-.175-.09-.257a1.219,1.219,0,0,1-.044-.129,1.151,1.151,0,0,0-.306-.5.526.526,0,0,1-.054-.128,2.023,2.023,0,0,1-.073-.62.49.49,0,0,0-.112-.357c-.018-.02-.034-.042-.051-.064s-.048-.065-.071-.1c-.044-.067-.1-.1-.146-.177a.124.124,0,0,1,0-.081.175.175,0,0,0,.015-.154.786.786,0,0,1,0-.313c0-.03.01-.059.016-.088-.046-.441-.2-.854-.284-1.286a.279.279,0,0,0-.166-.2.422.422,0,0,1-.159-.217.661.661,0,0,1,.029-.707c-.024-.074-.079-.112-.107-.179-.052-.105.05-.2-.044-.341-.041-.06.014-.267.012-.411l.039-.327a.453.453,0,0,1,.046-.284,1.284,1.284,0,0,0,.062-.577.432.432,0,0,1-.017-.141c0-.032,0-.064,0-.1-.008-.2-.107-.395-.049-.587l-.019-.125a.709.709,0,0,1,.043-.171c.033-.073.073-.125.148-.08a1.28,1.28,0,0,1,.164.534,4.964,4.964,0,0,0,.142.912,9.7,9.7,0,0,0,.456,1.337,1.873,1.873,0,0,1,.133.694,9.475,9.475,0,0,0,.263,1.2c.038.155-.036.323.078.476.089-.043.015-.207.08-.266a.672.672,0,0,0,.23.235c.155.067.018.139.024.208a12.085,12.085,0,0,1,.317,1.607,4,4,0,0,0,.214.992,2.166,2.166,0,0,1,.086.514c-.01.192.041.31.195.274l.025.03a.291.291,0,0,0,.112.219c.05.09.1.179.146.275a4.051,4.051,0,0,0,.33.941A.443.443,0,0,1,197.884,392.5Z" transform="translate(-182.749 -336.456)" fill="#fff"/>
  <path id="Path_1443" data-name="Path 1443" d="M462.585,322.241a.545.545,0,0,0,.067-.284c.027-.07.067-.133.1-.2a2.37,2.37,0,0,0,.479-1.192c0-.118.135-.188.185-.3a.906.906,0,0,0,.271-.233.743.743,0,0,0,.107-.1c.083-.086.176-.2.3-.122s.093.235.057.363c-.051.18-.092.364-.145.544a3.758,3.758,0,0,1-.428,1.094c-.115-.028-.129.075-.171.144-.018.171-.226.174-.262.329q-.162.294-.306.6c-.257.081-.154-.2-.248-.276A.444.444,0,0,1,462.585,322.241Z" transform="translate(-398.718 -287.247)" fill="#f5f1f2"/>
  <path id="Path_1444" data-name="Path 1444" d="M428.255,195.846c.109.249.316.249.44.459s.229.429.358.622a.422.422,0,0,1,.044.14c-.028.389-.23.183-.347.268-.111.023-.176-.145-.274-.174a.707.707,0,0,0-.71-.023l-.081-.009a2.473,2.473,0,0,1-.941-.487c-.232-.174-.475-.306-.708-.476-.1-.086-.207-.173-.313-.253a10.626,10.626,0,0,1-.86-.794c-.055-.06-.111-.117-.166-.178-.648-.91-1.2-1.991-1.87-2.861a.641.641,0,0,1-.026-.173c.019-.256.106-.384.266-.379.24.139.5.123.736.312.278.353.528.78.889.923a2.982,2.982,0,0,0,.471.278,2.148,2.148,0,0,1,.238.145c.523.578,1.126.922,1.653,1.486.265.241.58.366.753.828.114.238.292.256.448.345Z" transform="translate(-366.705 -185.515)" fill="#fafaf9"/>
  <path id="Path_1445" data-name="Path 1445" d="M454.916,313.541l.167.161c.229.389.6.7.613,1.2a1.436,1.436,0,0,1,0,.848l-.012.432c-.161.064-.2.362-.423.272-.252-.1-.027-.315-.04-.476a1.321,1.321,0,0,1,.063-.753c.149-.232.056-.33-.08-.432-.341-.254-.2.108-.264.214a.158.158,0,0,1-.26.011c-.117-.124-.141-.371-.043-.424C455.124,314.333,454.877,313.9,454.916,313.541Z" transform="translate(-392.292 -282.281)" fill="#f5f2f1"/>
  <path id="Path_1446" data-name="Path 1446" d="M510.173,464.869c-.362.317-.582.215-.615-.242a7.39,7.39,0,0,1,.04-1.3c.053.573.718.9.575,1.545Z" transform="translate(-436.601 -401.453)" fill="#f5f2f1"/>
  <path id="Path_1447" data-name="Path 1447" d="M165.655,298.5a1.516,1.516,0,0,0-.507,1.335.3.3,0,0,1-.275.389c-.2.016-.507.087-.563-.118-.095-.348-.447-.58-.4-.983a2.781,2.781,0,0,0-.353-1.633c.441.34,1.3-.047,1.346.966.02.425.478.167.746.038Z" transform="translate(-157.816 -269.523)" fill="#fff"/>
  <path id="Path_1448" data-name="Path 1448" d="M466.619,339.974l-1.668-.182.763-1.478c.189-.217.2.113.3.178a.856.856,0,0,0,.594.545C466.735,339.348,467.12,339.655,466.619,339.974Z" transform="translate(-400.657 -301.953)" fill="#eee8ee"/>
  <path id="Path_1449" data-name="Path 1449" d="M506.818,314.141h0Z" transform="translate(-433.874 -282.815)" fill="#fcfaf9"/>
  <path id="Path_1450" data-name="Path 1450" d="M153.7,396.692l-.011-.281c-.153-.174-.3-.348-.442-.536a22.64,22.64,0,0,1-.966-3.308.694.694,0,0,1,.132-.66c.285-.335.715-.344,1.088-.483.355.107.738-.175,1.083.078.293.328.037.592-.1.87-.315.493-.709.969-.349,1.609a.3.3,0,0,0,.338.263.916.916,0,0,1,.738.441c.365.585.141,1.316.475,1.909a2.382,2.382,0,0,0,.788,1.41.72.72,0,0,1,.684.536,9.8,9.8,0,0,0,1.286,2.32,3.853,3.853,0,0,1,.361.922c-.02.3.195.525.272.794.068.161.046.341.108.5.048.349.347.295.574.357a.265.265,0,0,1,.241.26c.161.416-.083.821-.03,1.234a.759.759,0,0,0,.246.494,2.2,2.2,0,0,1,.287.41,1.044,1.044,0,0,0,.289.576c.018.026.034.052.051.079-.157.221-.326.728-.424.643-.424-.368-1.111-.132-1.405-.616-.194-.32-.492-.659-.35-1.107.1-.04-.03,0,.069-.03.159-.048.381-.021.351-.279-.007-.061-.117.021-.181.007-.28-.058-.042.294-.239.3a.528.528,0,0,1-.743-.407c0-.452-.483-.4-.6-.735-.063-.178-.071.235-.24.22-.366.056-.3-.364-.513-.47-.274-.438-.326-1.007-.794-1.331-.209-.246-.232-.6-.463-.831a1.328,1.328,0,0,1-.2-.409,11.521,11.521,0,0,0-.827-2.779A7.4,7.4,0,0,1,153.7,396.692Z" transform="translate(-148.71 -343.725)" fill="#fafaf9"/>
  <path id="Path_1451" data-name="Path 1451" d="M243.243,451.238c.069.176.131.311-.176.432a5.384,5.384,0,0,0-.886.545.318.318,0,0,1-.248-.024.956.956,0,0,1,.012-1.374c.249-.326.6-.407.834.057C242.861,451.054,242.931,451.243,243.243,451.238Z" transform="translate(-220.742 -391.294)" fill="#d0c3d3"/>
  <path id="Path_1452" data-name="Path 1452" d="M255.141,449.694c-.378-.008-.523-.24-.662-.528-.5.528-.312,1.051-.27,1.554.013.158.124.313-.01.469-.13.012-.19-.037-.191-.138a.225.225,0,0,0-.107-.254c-.59-.344-.2-.793-.153-1.181a1.526,1.526,0,0,1,.356-.77l.532.131c.365.036.4.281.488.488Z" transform="translate(-230.356 -389.914)" fill="#efe5ef"/>
  <path id="Path_1453" data-name="Path 1453" d="M512.875,474.22c.068-.216.091-.471.412-.459.259.009.3.149.217.362C513.3,474.16,513.128,474.47,512.875,474.22Z" transform="translate(-439.283 -409.802)" fill="#e3cde3"/>
  <path id="Path_1454" data-name="Path 1454" d="M501.151,472a.1.1,0,0,0,.123.021c.179.307.822.227.731.66-.086.409-.595.4-.964.489a.75.75,0,0,1-.36.065l-.331-.339Z" transform="translate(-429.198 -408.376)" fill="#e8dee9"/>
  <path id="Path_1455" data-name="Path 1455" d="M284.759,180.6l-1.539.685a.339.339,0,0,1-.261.064c-1.488.309-2.972.571-4.449.732a19.515,19.515,0,0,1-4.234-.145l-1.408-.126a3.667,3.667,0,0,1-1.6-.229c-.2-.176.2-.26.637-.338a2.654,2.654,0,0,0,1.483-.471,1.873,1.873,0,0,1,1.671-.233,8.037,8.037,0,0,0,1.232.186,8.426,8.426,0,0,0,4.223-.38,7.88,7.88,0,0,1,1.909-.3l2.256.22c.6-.019.532.1.081.293Z" transform="translate(-244.575 -176.274)" fill="#f9f6f6"/>
  <path id="Path_1456" data-name="Path 1456" d="M477.986,413.143c-.071-.042-.142.007-.207.09a2.8,2.8,0,0,0-.324.633c0,.15-.1.254-.13.391l-.012.02,0,.024a.4.4,0,0,1-.122.172c-.092.106-.207.169-.254.361v0c-.055,0-.095-.024-.108.129-.017.2-.121.352-.231.291-.07-.038-.1.179-.141.063a.22.22,0,0,1,0-.108c-.021.026-.009.055-.015.083a.3.3,0,0,1-.047.131c-.077.04.035.222-.092.224l-.024,0c-.084-.062-.125.089-.184.151s-.109.181-.175.25c-.048.031-.083,0-.118-.025-.136-.045-.163-.184-.112-.416s.092-.439.147-.658c.042-.166.009-.224-.1-.132-.049.041-.111.147-.137.034a.218.218,0,0,1,.1-.231c.175-.041.318-.308.492-.323l.047,0c.082-.012.079-.112.1-.193s.017-.179.1-.2c.009,0,.068.023.027-.021-.167-.18.06-.339.076-.5a5.613,5.613,0,0,0,.416-.685c.063-.086.118-.187.182-.273a.565.565,0,0,1,.113-.122.853.853,0,0,0,.207-.331.558.558,0,0,1,.033-.065,1.26,1.26,0,0,0,.1-.176.768.768,0,0,1,.069-.112.079.079,0,0,1,.042-.028c.02,0,.033.028.052.035.031.047,0,.123-.006.266.069-.225.13-.349.243-.362.095-.011.168-.136.224-.246a1.019,1.019,0,0,1,.173-.249c.172-.184.082-.377.069-.555,0-.055-.045-.082,0-.16.066-.11.073-.009.106.023.075.074.154.088.23-.1.09-.224.236-.373.367-.374.249,0,.268-.289.334-.53a.758.758,0,0,0,.01-.143c.213.153-.031.372-.05.556,0,.038-.09.1-.056.13.156.144-.019.278-.061.414a1.1,1.1,0,0,0-.024.5.905.905,0,0,1-.3.521c-.134.093-.2.2-.088.357a.175.175,0,0,1-.036.173l-.113.142c-.279.009-.353.407-.489.688C478.178,412.827,478.146,413.087,477.986,413.143Z" transform="translate(-409.263 -358.223)" fill="#fff"/>
  <path id="Path_1457" data-name="Path 1457" d="M203.273,334.459c-.307-.184-.561-.341-.8-.5a27.648,27.648,0,0,1-7.58-7.211,26.979,26.979,0,0,1-2.53-4.36,26.353,26.353,0,0,1-1.642-4.675,25.488,25.488,0,0,1-.718-4.85,24.522,24.522,0,0,1,.243-4.884,23.562,23.562,0,0,1,3.513-9.295l1.006.649a22.887,22.887,0,0,0-2.882,18.092,25.9,25.9,0,0,0,11.238,15.528c.228.147.472.3.767.474Z" transform="translate(-179.387 -269.593)" fill="#fff"/>
  <path id="Path_1458" data-name="Path 1458" d="M431.512,328.517l-.611-1.029c.281-.167.512-.309.727-.448,11.1-7.167,13.827-22.752,6.083-34.743l1.006-.649a28.707,28.707,0,0,1,4.055,9.913,27.8,27.8,0,0,1,.55,5.118,26.95,26.95,0,0,1-.4,5.031,25.843,25.843,0,0,1-1.33,4.8,24.657,24.657,0,0,1-2.234,4.422,23.474,23.474,0,0,1-7.08,7.114C432.05,328.193,431.806,328.343,431.512,328.517Z" transform="translate(-373.44 -263.986)" fill="#fff"/>
</svg>
