<svg xmlns="http://www.w3.org/2000/svg" width="24" height="24" viewBox="0 0 24 24">
  <g id="Group_5447" data-name="Group 5447" transform="translate(-808 -560)">
    <rect id="Rectangle_430" data-name="Rectangle 430" width="24" height="24" transform="translate(808 560)" fill="none"/>
    <g id="Group_5446" data-name="Group 5446" transform="translate(-100 162)">
      <g id="document-copy_twotone" data-name="document-copy/twotone" transform="translate(910 400)">
        <g id="vuesax_twotone_document-copy" data-name="vuesax/twotone/document-copy" transform="translate(-2 -2)">
          <g id="document-copy">
            <path id="Vector" d="M15,6.4v3c0,4-1.6,5.6-5.6,5.6H5.6C1.6,15,0,13.4,0,9.4V5.6C0,1.6,1.6,0,5.6,0h3" transform="translate(2 7)" fill="none" stroke="#be64a7" stroke-linecap="round" stroke-linejoin="round" stroke-width="1.5" opacity="0.4"/>
            <path id="Vector-2" data-name="Vector" d="M6.4,6.4H3.2C.8,6.4,0,5.6,0,3.2V0Z" transform="translate(10.6 7)" fill="none" stroke="#be64a7" stroke-linecap="round" stroke-linejoin="round" stroke-width="1.5"/>
            <path id="Vector-3" data-name="Vector" d="M0,3A3,3,0,0,1,3,0H9" transform="translate(7 2)" fill="none" stroke="#be64a7" stroke-linecap="round" stroke-linejoin="round" stroke-width="1.5" opacity="0.4"/>
            <path id="Vector-4" data-name="Vector" d="M2.81,0V6.19A2.812,2.812,0,0,1,0,9" transform="translate(19.19 8)" fill="none" stroke="#be64a7" stroke-linecap="round" stroke-linejoin="round" stroke-width="1.5" opacity="0.4"/>
            <path id="Vector-5" data-name="Vector" d="M6,6H3C.75,6,0,5.25,0,3V0Z" transform="translate(16 2)" fill="none" stroke="#be64a7" stroke-linecap="round" stroke-linejoin="round" stroke-width="1.5"/>
          </g>
        </g>
      </g>
    </g>
  </g>
</svg>
