<svg width="24" height="24" viewBox="0 0 24 24" fill="none" xmlns="http://www.w3.org/2000/svg">
<style>
 #rotate{transform-origin:center;transform-box:fill-box;animation:rotation 1s linear infinite}@keyframes rotation{0%{transform:rotate(0deg) translateY(0px)}25%{transform:rotate(10deg) translateY(0px)}50%{transform:rotate(0deg) translateY(0px)}75%{transform:rotate(-10deg) translateY(0px)}100%{transform:rotate(0deg) translateY(0px)}}
</style>
<g id="trash-bulk 1">
<g id="vuesax/bulk/trash">
<g id="trash">
<path id="rotate" d="M21.07 5.23C19.46 5.07 17.85 4.95 16.23 4.86V4.85L16.01 3.55C15.86 2.63 15.64 1.25 13.3 1.25H10.68C8.346 1.25 8.13 2.57 7.97 3.54L7.76 4.82C6.83 4.88 5.9 4.94 4.97 5.03L2.93 5.23C2.73241 5.24857 2.5503 5.34486 2.42371 5.4977C2.29712 5.65055 2.23643 5.84741 2.255 6.045C2.27357 6.24259 2.36986 6.4247 2.5227 6.55129C2.67555 6.67788 2.87241 6.73856 3.07 6.72L5.11 6.52C10.3773 6.06531 15.6767 6.13566 20.93 6.73H21.01C21.1969 6.72924 21.3769 6.65936 21.5154 6.53382C21.6539 6.40827 21.741 6.23594 21.76 6.05C21.7751 5.85024 21.7113 5.65253 21.5823 5.49925C21.4533 5.34596 21.2694 5.24931 21.07 5.23Z" fill="#EC3737"/>
<path id="Vector" opacity="0.399" d="M19.228 8.14C19.1104 8.0171 18.9691 7.91921 18.8128 7.85219C18.6564 7.78518 18.4881 7.75042 18.318 7.75H5.68C5.50974 7.74949 5.34117 7.78383 5.18467 7.8509C5.02817 7.91797 4.88706 8.01635 4.77 8.14C4.65319 8.26596 4.56275 8.41401 4.50402 8.57544C4.44529 8.73687 4.41944 8.90843 4.428 9.08L5.048 19.34C5.158 20.86 5.298 22.76 8.788 22.76H15.208C18.698 22.76 18.838 20.87 18.948 19.34L19.568 9.09C19.5775 8.91698 19.5523 8.74381 19.4939 8.58067C19.4355 8.41752 19.3451 8.2677 19.228 8.14V8.14Z" fill="#EC3737"/>
<path id="Vector (Stroke)" d="M9.58 17C9.58 16.8011 9.65902 16.6103 9.79967 16.4697C9.94032 16.329 10.1311 16.25 10.33 16.25H13.66C13.8589 16.25 14.0497 16.329 14.1903 16.4697C14.331 16.6103 14.41 16.8011 14.41 17C14.41 17.1989 14.331 17.3897 14.1903 17.5303C14.0497 17.671 13.8589 17.75 13.66 17.75H10.33C10.1311 17.75 9.94032 17.671 9.79967 17.5303C9.65902 17.3897 9.58 17.1989 9.58 17V17Z" fill="#EC3737"/>
<path id="Vector (Stroke)_2" d="M8.75 13C8.75 12.8011 8.82902 12.6103 8.96967 12.4697C9.11032 12.329 9.30109 12.25 9.5 12.25H14.5C14.6989 12.25 14.8897 12.329 15.0303 12.4697C15.171 12.6103 15.25 12.8011 15.25 13C15.25 13.1989 15.171 13.3897 15.0303 13.5303C14.8897 13.671 14.6989 13.75 14.5 13.75H9.5C9.30109 13.75 9.11032 13.671 8.96967 13.5303C8.82902 13.3897 8.75 13.1989 8.75 13V13Z" fill="#EC3737"/>
</g>
</g>
</g>
</svg>
