<svg id="instagram_twotone" data-name="instagram/twotone" xmlns="http://www.w3.org/2000/svg" width="24" height="24" viewBox="0 0 24 24">
  <g id="vuesax_twotone_instagram" data-name="vuesax/twotone/instagram">
    <g id="instagram">
      <path id="Vector" d="M7,20h6c5,0,7-2,7-7V7c0-5-2-7-7-7H7C2,0,0,2,0,7v6C0,18,2,20,7,20Z" transform="translate(2 2)" fill="none" stroke="#472b73" stroke-linecap="round" stroke-linejoin="round" stroke-width="1.5"/>
      <path id="Vector-2" data-name="Vector" d="M0,0H24V24H0Z" fill="none" opacity="0"/>
      <path id="Vector-3" data-name="Vector" d="M7,3.5A3.5,3.5,0,1,1,3.5,0,3.5,3.5,0,0,1,7,3.5Z" transform="translate(8.5 8.5)" fill="none" stroke="#472b73" stroke-linecap="round" stroke-linejoin="round" stroke-width="1.5" opacity="0.34"/>
      <path id="Vector-4" data-name="Vector" d="M.636.5H.648" transform="translate(17 6.5)" fill="none" stroke="#472b73" stroke-linecap="round" stroke-linejoin="round" stroke-width="2" opacity="0.34"/>
    </g>
  </g>
</svg>
