<svg xmlns="http://www.w3.org/2000/svg" width="24" height="24" viewBox="0 0 24 24">
  <g id="Group_5376" data-name="Group 5376" transform="translate(-744 -1663)">
    <g id="information_bulk" data-name="information/bulk" transform="translate(744 1663)">
      <g id="vuesax_bulk_information" data-name="vuesax/bulk/information">
        <g id="information">
          <path id="Vector" d="M8.745.442a2,2,0,0,1,2.51,0l1.58,1.35a2.31,2.31,0,0,0,1.27.46h1.7a1.938,1.938,0,0,1,1.93,1.93v1.7a2.279,2.279,0,0,0,.46,1.26l1.35,1.58a2,2,0,0,1,0,2.51l-1.35,1.58a2.279,2.279,0,0,0-.46,1.26v1.7A1.938,1.938,0,0,1,15.8,17.7h-1.7a2.279,2.279,0,0,0-1.26.46l-1.58,1.35a2,2,0,0,1-2.51,0l-1.58-1.35a2.307,2.307,0,0,0-1.26-.46H4.165a1.938,1.938,0,0,1-1.93-1.93v-1.71a2.237,2.237,0,0,0-.45-1.25l-1.35-1.59a2.013,2.013,0,0,1,0-2.5l1.35-1.59a2.264,2.264,0,0,0,.45-1.25V4.192a1.938,1.938,0,0,1,1.93-1.93h1.73a2.279,2.279,0,0,0,1.26-.46Z" transform="translate(2.005 2.008)" fill="#674495" opacity="0.4"/>
          <path id="Vector-2" data-name="Vector" d="M1,2A1,1,0,1,1,2,1,1,1,0,0,1,1,2Z" transform="translate(11 14.87)" fill="#674495"/>
          <path id="Vector-3" data-name="Vector" d="M.75,6.34A.755.755,0,0,1,0,5.59V.75A.755.755,0,0,1,.75,0,.755.755,0,0,1,1.5.75V5.58A.751.751,0,0,1,.75,6.34Z" transform="translate(11.25 7.38)" fill="#674495"/>
          <path id="Vector-4" data-name="Vector" d="M0,0H24V24H0Z" fill="none" opacity="0"/>
        </g>
      </g>
    </g>
  </g>
</svg>
