<svg xmlns="http://www.w3.org/2000/svg" width="11.352" height="20" viewBox="0 0 11.352 20">
  <path id="facebook" d="M7.512,20h-3.2a.971.971,0,0,1-.97-.97V11.805H1.47a.971.971,0,0,1-.97-.97V7.74a.971.971,0,0,1,.97-.97H3.339V5.219a5.278,5.278,0,0,1,1.4-3.781A5.027,5.027,0,0,1,8.441,0l2.443,0a.972.972,0,0,1,.968.97V3.848a.971.971,0,0,1-.97.97H9.237c-.5,0-.629.1-.657.131-.045.051-.1.2-.1.595V6.769h2.276a.986.986,0,0,1,.48.122.974.974,0,0,1,.5.849v3.1a.971.971,0,0,1-.97.97H8.482v7.224a.971.971,0,0,1-.97.97Zm-3-1.172h2.8V11.28a.649.649,0,0,1,.648-.648h2.607V7.942H7.957a.648.648,0,0,1-.648-.648V5.545A2,2,0,0,1,7.7,4.174a1.987,1.987,0,0,1,1.535-.528h1.442V1.176l-2.24,0A3.7,3.7,0,0,0,4.511,5.219V7.294a.648.648,0,0,1-.648.648H1.673v2.691H3.864a.648.648,0,0,1,.648.648Zm6.37-17.651h0Zm0,0" transform="translate(-0.5 0)" fill="#fff"/>
</svg>
