<svg xmlns="http://www.w3.org/2000/svg" width="20" height="20" viewBox="0 0 20 20">
  <g id="instagram" transform="translate(0.001)">
    <path id="Path_1486" data-name="Path 1486" d="M14.585,0H5.413A5.42,5.42,0,0,0,0,5.414v9.173A5.42,5.42,0,0,0,5.413,20h9.172A5.42,5.42,0,0,0,20,14.586V5.414A5.42,5.42,0,0,0,14.585,0Zm4.241,14.586a4.246,4.246,0,0,1-4.241,4.241H5.413a4.246,4.246,0,0,1-4.241-4.241V5.414A4.246,4.246,0,0,1,5.413,1.172h9.172a4.246,4.246,0,0,1,4.241,4.241Zm0,0" fill="#fff"/>
    <path id="Path_1487" data-name="Path 1487" d="M121.359,116a5.355,5.355,0,1,0,5.355,5.355A5.361,5.361,0,0,0,121.359,116Zm0,9.561a4.207,4.207,0,1,1,4.207-4.207A4.211,4.211,0,0,1,121.359,125.565Zm0,0" transform="translate(-111.36 -111.359)" fill="#fff"/>
    <path id="Path_1488" data-name="Path 1488" d="M359.633,66.285a1.657,1.657,0,1,0,1.657,1.657A1.658,1.658,0,0,0,359.633,66.285Zm0,2.111a.455.455,0,1,1,.455-.455A.455.455,0,0,1,359.633,68.4Zm0,0" transform="translate(-344.146 -63.631)" fill="#fff"/>
  </g>
</svg>
