<svg xmlns="http://www.w3.org/2000/svg" width="21.327" height="20" viewBox="0 0 21.327 20">
  <g id="snapchat" transform="translate(0 -15.923)">
    <path id="Path_1485" data-name="Path 1485" d="M21.186,30.381a1.3,1.3,0,0,0-.83-.647l-.835-.345a4.064,4.064,0,0,1-2.381-2.458c.545-.142,1.086-.3,1.616-.479A1.875,1.875,0,0,0,17.57,22.9q-.309.1-.624.2c.014-.152.023-.26.024-.263a6.333,6.333,0,1,0-12.615,0l.024.263q-.315-.094-.624-.2a1.875,1.875,0,1,0-1.186,3.558c.533.178,1.078.339,1.628.482a4.079,4.079,0,0,1-2.37,2.454l-.01,0-.81.332a1.286,1.286,0,0,0-.9.732,1.348,1.348,0,0,0,.128,1.279,2.117,2.117,0,0,0,.8.691,6.48,6.48,0,0,0,1.736.548,2.314,2.314,0,0,0,.322.84,1.282,1.282,0,0,0,1.319.533c1.861-.288,2.064-.141,2.737.343a9.6,9.6,0,0,0,1.3.818,6.037,6.037,0,0,0,4.552-.06,6.151,6.151,0,0,0,.553-.35,3.572,3.572,0,0,1,3.094-.822,1.535,1.535,0,0,0,1.25-.124,1.658,1.658,0,0,0,.657-1.181c.972-.2,2.246-.483,2.659-1.478A1.306,1.306,0,0,0,21.186,30.381Zm-1.108.578a.1.1,0,0,1-.011.052c-.172.413-1.262.633-1.848.751l-.228.047c-.507.106-.6.615-.649.888a1.449,1.449,0,0,1-.109.4.625.625,0,0,1-.26-.03,4.8,4.8,0,0,0-4.114,1c-.149.1-.28.191-.39.256a4.734,4.734,0,0,1-3.507.043,9.044,9.044,0,0,1-1.078-.688,3.168,3.168,0,0,0-1.338-.662,6.956,6.956,0,0,0-2.319.1.327.327,0,0,1-.092,0,1.478,1.478,0,0,1-.148-.458c-.061-.283-.163-.758-.65-.849L3.292,31.8c-.25-.047-.545-.1-.839-.177a3.9,3.9,0,0,1-.831-.3.892.892,0,0,1-.342-.27c-.035-.053-.033-.087-.029-.095s1.03-.4,1.034-.405a5.326,5.326,0,0,0,3.271-3.844l.02-.094a.625.625,0,0,0-.47-.741c-.723-.168-1.444-.372-2.144-.605a.625.625,0,1,1,.4-1.186c.514.171,1.042.326,1.57.461a.625.625,0,0,0,.777-.663L5.6,22.717a5.083,5.083,0,1,1,10.125,0c0,.035-.078.856-.1,1.166a.625.625,0,0,0,.777.659c.527-.135,1.054-.289,1.569-.461a.625.625,0,0,1,.4,1.186c-.7.232-1.413.435-2.132.6a.625.625,0,0,0-.471.728,5.311,5.311,0,0,0,3.3,3.955C20.4,31.083,20,30.924,20.077,30.96Z" transform="translate(0)" fill="#fff"/>
  </g>
</svg>
