<svg xmlns="http://www.w3.org/2000/svg" width="17.49" height="20" viewBox="0 0 17.49 20">
  <path id="tik-tok" d="M16.9,4.393A3.812,3.812,0,0,1,13.1.586.586.586,0,0,0,12.51,0H9.372a.586.586,0,0,0-.586.586V13.452a2.238,2.238,0,1,1-2.238-2.238.586.586,0,0,0,.586-.586V7.49A.586.586,0,0,0,6.548,6.9,6.548,6.548,0,1,0,13.1,13.452v-5.7A8.06,8.06,0,0,0,16.9,8.7a.586.586,0,0,0,.586-.586V4.979a.586.586,0,0,0-.586-.586Zm-.586,3.114a6.887,6.887,0,0,1-3.465-1.279.586.586,0,0,0-.928.476v6.749A5.376,5.376,0,1,1,5.962,8.107v1.985a3.41,3.41,0,1,0,4,3.36V1.172h2a4.99,4.99,0,0,0,4.359,4.359Zm0,0" transform="translate(0)" fill="#fff"/>
</svg>
