<svg xmlns="http://www.w3.org/2000/svg" width="20.744" height="17" viewBox="0 0 20.744 17">
  <path id="twitter" d="M20.609,2.1a.608.608,0,0,0-.7-.182l-.117.047a4.6,4.6,0,0,0,.385-.859.608.608,0,0,0-.827-.746L19.3.376a10.13,10.13,0,0,1-2.057.834l-.071-.063A4.256,4.256,0,0,0,14.093,0a4.632,4.632,0,0,0-3.341,1.47A4.778,4.778,0,0,0,9.6,4.826,10.744,10.744,0,0,1,2.473.919a.608.608,0,0,0-1.016.143A5.523,5.523,0,0,0,.9,3.6a4.308,4.308,0,0,0,.579,1.974.608.608,0,0,0-.637.647A4.721,4.721,0,0,0,2.5,9.737a.608.608,0,0,0-.2.642A4.572,4.572,0,0,0,4.96,13.243a8.006,8.006,0,0,1-4.3.788.608.608,0,0,0-.364,1.126A12.417,12.417,0,0,0,6.8,17a11.175,11.175,0,0,0,9.365-4.524A13.113,13.113,0,0,0,18.741,5.16c0-.234-.007-.281,0-.347a6.94,6.94,0,0,0,1.9-1.993.607.607,0,0,0-.028-.725ZM17.523,4.967c0,.042,0,.1,0,.193a11.819,11.819,0,0,1-2.33,6.59A10,10,0,0,1,6.8,15.785a11.062,11.062,0,0,1-3.747-.648,8.669,8.669,0,0,0,3.838-1.684.608.608,0,0,0-.339-1.088,3.5,3.5,0,0,1-2.7-1.52,7.669,7.669,0,0,0,.829-.112.608.608,0,0,0,.075-1.179A3.426,3.426,0,0,1,2.2,7.1a7.4,7.4,0,0,0,.911.154.608.608,0,0,0,.468-1.067A3.412,3.412,0,0,1,2.236,2.46,11.939,11.939,0,0,0,10.2,6.1a.608.608,0,0,0,.646-.667,3.93,3.93,0,0,1,.808-3.151,3.44,3.44,0,0,1,2.439-1.078,3.022,3.022,0,0,1,2.278.85,1.123,1.123,0,0,0,.75.384,2.929,2.929,0,0,0,.826-.164q-.169.143-.361.276a.608.608,0,0,0,.391,1.106q.158-.012.318-.033a1.369,1.369,0,0,0-.772,1.341Zm0,0" transform="translate(0.001)" fill="#fff"/>
</svg>
