<svg xmlns="http://www.w3.org/2000/svg" width="22.445" height="17" viewBox="0 0 22.445 17">
  <g id="youtube" transform="translate(0.001)">
    <path id="Path_1483" data-name="Path 1483" d="M197.234,109.341l-4.944-2.705a.908.908,0,0,0-1.344.8V112.8a.906.906,0,0,0,1.338.8l4.944-2.658a.908.908,0,0,0,.006-1.6Zm-4.976,2.78v-4.009l3.695,2.022Zm0,0" transform="translate(-182.565 -101.843)" fill="#fff"/>
    <path id="Path_1484" data-name="Path 1484" d="M22.279,4.012V4a5.133,5.133,0,0,0-.989-2.6A3.652,3.652,0,0,0,18.869.263L18.758.25l-.039,0C15.752.03,11.27,0,11.225,0h-.008C11.173,0,6.692.03,3.7.245l-.04,0L3.553.262a3.56,3.56,0,0,0-2.4,1.169A5.379,5.379,0,0,0,.167,3.989l0,.023C.158,4.087,0,5.877,0,7.674v1.68c0,1.8.158,3.586.165,3.662v.011A5.083,5.083,0,0,0,1.151,15.6a3.727,3.727,0,0,0,2.5,1.118c.091.01.17.019.223.029l.052.007c1.713.163,7.085.243,7.313.247h.014c.045,0,4.526-.03,7.493-.245l.039,0,.126-.014A3.478,3.478,0,0,0,21.3,15.6a5.379,5.379,0,0,0,.981-2.558l0-.023c.007-.075.165-1.865.165-3.661V7.674c0-1.8-.159-3.586-.165-3.661Zm-1.15,5.341c0,1.663-.145,3.375-.159,3.533a4.176,4.176,0,0,1-.645,1.822,2.163,2.163,0,0,1-1.552.72l-.14.016c-2.87.208-7.182.239-7.381.241-.223,0-5.516-.084-7.177-.239-.085-.014-.177-.024-.274-.035a2.459,2.459,0,0,1-1.682-.7l-.012-.013a3.789,3.789,0,0,1-.633-1.8c-.01-.119-.159-1.852-.159-3.538V7.674c0-1.661.145-3.372.159-3.532a4.091,4.091,0,0,1,.645-1.823A2.269,2.269,0,0,1,3.7,1.569l.107-.013c2.912-.209,7.255-.24,7.411-.241s4.5.032,7.383.241l.116.014a2.355,2.355,0,0,1,1.611.73l.005.006a3.85,3.85,0,0,1,.633,1.83c.01.112.159,1.849.159,3.539Zm0,0" transform="translate(0 0)" fill="#fff"/>
  </g>
</svg>
